<?xml version="1.0" encoding="UTF-8" standalone="no"?>
<!-- Generator: Adobe Illustrator 19.0.0, SVG Export Plug-In . SVG Version: 6.00 Build 0)  -->

<svg
   xmlns:dc="http://purl.org/dc/elements/1.1/"
   xmlns:cc="http://creativecommons.org/ns#"
   xmlns:rdf="http://www.w3.org/1999/02/22-rdf-syntax-ns#"
   xmlns:svg="http://www.w3.org/2000/svg"
   xmlns="http://www.w3.org/2000/svg"
   xmlns:sodipodi="http://sodipodi.sourceforge.net/DTD/sodipodi-0.dtd"
   xmlns:inkscape="http://www.inkscape.org/namespaces/inkscape"
   version="1.1"
   id="Capa_1"
   x="0px"
   y="0px"
   viewBox="0 0 453.44 453.44"
   style="enable-background:new 0 0 453.44 453.44;"
   xml:space="preserve"
   sodipodi:docname="adm_silver.svg"
   inkscape:version="0.92.2 5c3e80d, 2017-08-06"><metadata
     id="metadata1330"><rdf:RDF><cc:Work
         rdf:about=""><dc:format>image/svg+xml</dc:format><dc:type
           rdf:resource="http://purl.org/dc/dcmitype/StillImage" /><dc:title></dc:title></cc:Work></rdf:RDF></metadata><defs
     id="defs1328" /><sodipodi:namedview
     pagecolor="#ffffff"
     bordercolor="#666666"
     borderopacity="1"
     objecttolerance="10"
     gridtolerance="10"
     guidetolerance="10"
     inkscape:pageopacity="0"
     inkscape:pageshadow="2"
     inkscape:window-width="1440"
     inkscape:window-height="775"
     id="namedview1326"
     showgrid="false"
     inkscape:zoom="0.52046577"
     inkscape:cx="226.72"
     inkscape:cy="226.72"
     inkscape:window-x="0"
     inkscape:window-y="1"
     inkscape:window-maximized="1"
     inkscape:current-layer="Capa_1" /><g
     id="g1281"
     style="fill:#c0c0c0;fill-opacity:1"><g
       id="g1279"
       style="fill:#c0c0c0;fill-opacity:1"><path
         d="M397.76,389.722h-0.16H55.68C25.001,389.897,0.175,414.723,0,445.402c0,4.418,3.582,8,8,8h437.44c4.418,0,8-3.582,8-8    C453.265,414.723,428.439,389.897,397.76,389.722z"
         id="path1277"
         style="fill:#c0c0c0;fill-opacity:1" /></g></g><g
     id="g1287"
     style="fill:#c0c0c0;fill-opacity:1"><g
       id="g1285"
       style="fill:#c0c0c0;fill-opacity:1"><path
         d="M452.652,145.165c-0.214-2.265-1.382-4.332-3.212-5.683L230.92,1.242c-2.584-1.605-5.856-1.605-8.44,0L4.2,139.122    c-3.746,2.343-4.883,7.279-2.541,11.025c1.349,2.157,3.644,3.544,6.181,3.735h437.6    C449.839,153.466,453.068,149.564,452.652,145.165z"
         id="path1283"
         style="fill:#c0c0c0;fill-opacity:1" /></g></g><g
     id="g1293"
     style="fill:#c0c0c0;fill-opacity:1"><g
       id="g1291"
       style="fill:#c0c0c0;fill-opacity:1"><path
         d="M38.64,165.842c7.231,18.842,24.04,32.335,44,35.32v176.56h63.64v-176h48.6v176h63.52v-176H307v176h63.64v-176.56    c19.96-2.985,36.769-16.478,44-35.32H38.64z"
         id="path1289"
         style="fill:#c0c0c0;fill-opacity:1" /></g></g><g
     id="g1295" /><g
     id="g1297" /><g
     id="g1299" /><g
     id="g1301" /><g
     id="g1303" /><g
     id="g1305" /><g
     id="g1307" /><g
     id="g1309" /><g
     id="g1311" /><g
     id="g1313" /><g
     id="g1315" /><g
     id="g1317" /><g
     id="g1319" /><g
     id="g1321" /><g
     id="g1323" /></svg>