<?xml version="1.0" encoding="UTF-8" standalone="no"?>
<!-- Generator: Adobe Illustrator 19.0.0, SVG Export Plug-In . SVG Version: 6.00 Build 0)  -->

<svg
   xmlns:dc="http://purl.org/dc/elements/1.1/"
   xmlns:cc="http://creativecommons.org/ns#"
   xmlns:rdf="http://www.w3.org/1999/02/22-rdf-syntax-ns#"
   xmlns:svg="http://www.w3.org/2000/svg"
   xmlns="http://www.w3.org/2000/svg"
   xmlns:sodipodi="http://sodipodi.sourceforge.net/DTD/sodipodi-0.dtd"
   xmlns:inkscape="http://www.inkscape.org/namespaces/inkscape"
   version="1.1"
   id="Layer_1"
   x="0px"
   y="0px"
   viewBox="0 0 512.001 512.001"
   style="enable-background:new 0 0 512.001 512.001;"
   xml:space="preserve"
   sodipodi:docname="health_gold.svg"
   inkscape:version="0.92.2 5c3e80d, 2017-08-06"><metadata
     id="metadata4651"><rdf:RDF><cc:Work
         rdf:about=""><dc:format>image/svg+xml</dc:format><dc:type
           rdf:resource="http://purl.org/dc/dcmitype/StillImage" /><dc:title></dc:title></cc:Work></rdf:RDF></metadata><defs
     id="defs4649" /><sodipodi:namedview
     pagecolor="#ffffff"
     bordercolor="#666666"
     borderopacity="1"
     objecttolerance="10"
     gridtolerance="10"
     guidetolerance="10"
     inkscape:pageopacity="0"
     inkscape:pageshadow="2"
     inkscape:window-width="1440"
     inkscape:window-height="775"
     id="namedview4647"
     showgrid="false"
     inkscape:zoom="0.46093662"
     inkscape:cx="256.00049"
     inkscape:cy="256.00049"
     inkscape:window-x="0"
     inkscape:window-y="1"
     inkscape:window-maximized="1"
     inkscape:current-layer="Layer_1" /><g
     id="g4602"
     style="fill:#d4af37;fill-opacity:1"><g
       id="g4600"
       style="fill:#d4af37;fill-opacity:1"><path
         d="M226.697,184.24L68.556,342.381c-3.205,3.205-5.169,7.442-5.548,11.959l-5.575,66.913L7.58,471.109    c-9.355,9.355-9.355,24.52,0,33.875c4.677,4.677,10.808,7.017,16.937,7.017c6.13,0,12.261-2.339,16.937-7.017l49.852-49.854    l66.915-5.575c4.518-0.377,8.754-2.343,11.959-5.548l158.141-158.141L226.697,184.24z"
         id="path4598"
         style="fill:#d4af37;fill-opacity:1" /></g></g><g
     id="g4608"
     style="fill:#d4af37;fill-opacity:1"><g
       id="g4606"
       style="fill:#d4af37;fill-opacity:1"><path
         d="M389.243,157.198l58.887-58.887l-33.875-33.877l-58.887,58.887L311.33,79.284c-9.352-9.355-24.52-9.355-33.875,0    c-9.355,9.355-9.355,24.52,0,33.875l10.163,10.163l-33.819,33.819l101.627,101.627l33.818-33.819l10.163,10.163    c4.677,4.677,10.808,7.017,16.938,7.017c6.129,0,12.261-2.339,16.937-7.017c9.355-9.353,9.355-24.52,0-33.875L389.243,157.198z"
         id="path4604"
         style="fill:#d4af37;fill-opacity:1" /></g></g><g
     id="g4614"
     style="fill:#d4af37;fill-opacity:1"><g
       id="g4612"
       style="fill:#d4af37;fill-opacity:1"><path
         d="M504.419,64.603L446.832,7.016c-9.355-9.355-24.52-9.355-33.875,0c-5.014,5.013-7.312,11.693-6.953,18.254    c0.31,5.683,2.613,11.279,6.953,15.621l57.589,57.589c3.762,3.764,8.472,5.987,13.358,6.721c1.187,0.179,2.381,0.295,3.579,0.295    c6.13,0,12.261-2.338,16.938-7.017C513.776,89.124,513.776,73.958,504.419,64.603z"
         id="path4610"
         style="fill:#d4af37;fill-opacity:1" /></g></g><g
     id="g4616" /><g
     id="g4618" /><g
     id="g4620" /><g
     id="g4622" /><g
     id="g4624" /><g
     id="g4626" /><g
     id="g4628" /><g
     id="g4630" /><g
     id="g4632" /><g
     id="g4634" /><g
     id="g4636" /><g
     id="g4638" /><g
     id="g4640" /><g
     id="g4642" /><g
     id="g4644" /></svg>