<?xml version="1.0" encoding="UTF-8" standalone="no"?>
<svg
   xmlns:dc="http://purl.org/dc/elements/1.1/"
   xmlns:cc="http://creativecommons.org/ns#"
   xmlns:rdf="http://www.w3.org/1999/02/22-rdf-syntax-ns#"
   xmlns:svg="http://www.w3.org/2000/svg"
   xmlns="http://www.w3.org/2000/svg"
   xmlns:xlink="http://www.w3.org/1999/xlink"
   xmlns:sodipodi="http://sodipodi.sourceforge.net/DTD/sodipodi-0.dtd"
   xmlns:inkscape="http://www.inkscape.org/namespaces/inkscape"
   version="1.1"
   viewBox="0 0 236.943 236.943"
   enable-background="new 0 0 236.943 236.943"
   id="svg4275"
   sodipodi:docname="police_gold.svg"
   inkscape:version="0.92.2 5c3e80d, 2017-08-06">
  <metadata
     id="metadata4281">
    <rdf:RDF>
      <cc:Work
         rdf:about="">
        <dc:format>image/svg+xml</dc:format>
        <dc:type
           rdf:resource="http://purl.org/dc/dcmitype/StillImage" />
        <dc:title></dc:title>
      </cc:Work>
    </rdf:RDF>
  </metadata>
  <defs
     id="defs4279" />
  <sodipodi:namedview
     pagecolor="#ffffff"
     bordercolor="#666666"
     borderopacity="1"
     objecttolerance="10"
     gridtolerance="10"
     guidetolerance="10"
     inkscape:pageopacity="0"
     inkscape:pageshadow="2"
     inkscape:window-width="1440"
     inkscape:window-height="775"
     id="namedview4277"
     showgrid="false"
     inkscape:zoom="2.3718785"
     inkscape:cx="43.003888"
     inkscape:cy="118.4715"
     inkscape:window-x="0"
     inkscape:window-y="1"
     inkscape:window-maximized="1"
     inkscape:current-layer="svg4275" />
  <path
     inkscape:connector-curvature="0"
     id="path4269"
     d="m 234.995,92.878 c 3.44,-4.291 2.202,-9.754 -2.754,-12.141 L 195.62,63.1 C 190.664,60.714 185.609,54.374 184.385,49.012 L 175.34,9.381 C 174.115,4.019 169.06,1.584 164.104,3.97 l -36.62,17.629 c -4.956,2.385 -13.064,2.383 -18.02,-0.004 L 72.841,3.946 C 67.886,1.558 62.83,3.991 61.606,9.353 l -9.044,39.593 c -1.225,5.361 -6.283,11.693 -11.24,14.075 L 4.71,80.601 c -4.957,2.383 -6.203,7.83 -2.769,12.125 l 25.321,31.633 c 3.435,4.295 5.239,12.136 4.011,17.496 L 22.249,181.1 c -1.229,5.36 2.266,9.503 7.766,9.503 h 40.646 c 5.5,0 12.806,3.763 16.234,8.063 l 25.343,32.024 c 3.429,4.3 9.04,4.3 12.469,0 l 25.344,-32.024 c 3.43,-4.3 10.735,-8.063 16.235,-8.063 h 40.649 c 5.5,0 8.994,-4.143 7.765,-9.503 l -9.027,-39.123 c -1.229,-5.36 0.58,-13.258 4.021,-17.548 z m -116.522,77.058 c -31.751,0 -57.583,-25.832 -57.583,-57.583 0,-31.751 25.832,-57.583 57.583,-57.583 31.751,0 57.583,25.832 57.583,57.583 0,31.751 -25.832,57.583 -57.583,57.583 z"
     style="fill:#d4af37;fill-opacity:1" />
  <polygon
     id="polygon4271"
     points="106.724,96.277 81.179,100.318 99.484,118.609 95.425,144.164 118.48,132.408 141.521,144.16 137.466,118.606 155.767,100.319 130.207,96.277 118.468,73.216 "
     style="fill:#d4af37;fill-opacity:1" />
  <path
     style="stroke-width:0.42160675;fill:#cd7f32;fill-opacity:0"
     d="m 115.71423,233.14747 c -1.8299,-0.79715 -2.53416,-1.62126 -16.968975,-19.85662 -12.03837,-15.20795 -13.252694,-16.60398 -16.171233,-18.59097 -1.735515,-1.18157 -4.37646,-2.59828 -5.868762,-3.14824 -2.702849,-0.99609 -2.803196,-1.0008 -26.11245,-1.22455 -22.632058,-0.21724 -23.447504,-0.253 -24.873366,-1.09062 -2.177083,-1.27892 -3.374286,-3.29498 -3.374286,-5.68223 0,-1.09817 2.008232,-10.69856 4.462738,-21.3342 2.454505,-10.63563 4.621961,-20.42878 4.816567,-21.76255 0.451333,-3.09328 -0.113997,-7.25686 -1.514608,-11.1549 -0.987784,-2.7491 -2.394886,-4.66918 -14.715146,-20.07969 C 7.9021032,99.850944 1.533189,91.737151 1.2415666,91.19225 -0.31040514,88.292367 0.12025388,84.814292 2.2994925,82.648271 3.1914485,81.76172 10.1308,78.216256 23.421284,71.856694 l 19.793408,-9.471252 3.210097,-3.176951 c 5.087954,-5.035426 5.202808,-5.35193 10.783056,-29.714653 2.757802,-12.040231 5.191543,-21.7407209 5.666762,-22.586729 1.693185,-3.0143228 5.38802,-4.4008288 8.587737,-3.2225933 0.927535,0.3415472 10.129102,4.6871562 20.447927,9.6569093 10.318829,4.969753 19.705659,9.269893 20.859619,9.555866 2.58412,0.640389 8.58847,0.672347 11.30563,0.06017 1.11121,-0.250352 10.69222,-4.63399 21.29114,-9.741418 10.59893,-5.1074269 20.06367,-9.4876075 21.03278,-9.7337344 2.98057,-0.7569884 6.39157,0.9126312 7.94789,3.8903364 0.31353,0.5998895 2.75815,10.64292 5.43249,22.317846 3.3665,14.696617 5.20375,21.901755 5.97188,23.419952 1.38325,2.733943 4.01927,5.965786 6.50098,7.9704 1.09755,0.886555 9.98284,5.428406 21.08034,10.775526 10.5507,5.083667 19.79853,9.728479 20.55071,10.321806 2.47098,1.949114 3.40066,5.337306 2.27286,8.283401 -0.23647,0.617709 -6.50292,8.716791 -13.92545,17.997974 -7.42254,9.28117 -13.96492,17.80116 -14.53862,18.93331 -0.57371,1.13215 -1.35849,3.27559 -1.74397,4.76319 -1.37377,5.30154 -1.1066,7.26332 3.97717,29.20463 2.56966,11.09052 4.67212,21.07035 4.67212,22.17741 0,2.40441 -1.19109,4.41587 -3.37429,5.69838 -1.42586,0.83762 -2.24131,0.87338 -24.87337,1.09062 -23.1524,0.22224 -23.42707,0.23492 -26.04498,1.20176 -1.45519,0.53744 -4.03555,1.88439 -5.73414,2.99324 -2.89603,1.89054 -3.89533,3.03641 -16.0491,18.40295 -7.12843,9.01278 -13.64901,17.12542 -14.4902,18.0281 -2.4753,2.65627 -5.45347,3.44197 -8.31753,2.19433 z M 129.85488,169.015 c 11.13813,-2.41635 20.67556,-7.48508 28.70193,-15.25384 17.81372,-17.24199 22.69299,-43.67664 12.15674,-65.862127 C 162.68011,70.983538 147.5511,59.204225 129.1547,55.541685 124.021,54.519617 112.93122,54.517691 107.80806,55.53789 96.140534,57.861508 86.278883,63.143482 77.76835,71.627378 66.019607,83.339343 60.121241,98.41337 60.857341,114.84559 c 0.641639,14.32349 6.014991,26.93922 15.875087,37.27205 8.949464,9.37853 20.071543,15.2168 33.096132,17.373 4.39917,0.72827 15.71561,0.45945 20.02632,-0.47573 z"
     id="path4283"
     inkscape:connector-curvature="0" />
  <path
     style="fill:#cd7f32;fill-opacity:0;stroke-width:0.42160675"
     d="m 115.56241,232.93947 c -2.17297,-1.00605 -1.73895,-0.50079 -16.450986,-19.15138 -6.917976,-8.76999 -13.398388,-16.66744 -14.40091,-17.5499 -1.002522,-0.88245 -3.12293,-2.28768 -4.712016,-3.12272 -5.205971,-2.73566 -5.783096,-2.78901 -30.245832,-2.79595 l -21.96264,-0.006 -1.835905,-0.97085 c -2.043023,-1.08038 -3.777606,-3.77859 -3.777606,-5.87621 0,-0.67845 2.181815,-10.68816 4.848478,-22.24381 2.676649,-11.59892 4.845198,-21.92302 4.841156,-23.04793 -0.01076,-2.99468 -1.073378,-7.50943 -2.455551,-10.43289 -0.795941,-1.6835 -5.745692,-8.22382 -14.386305,-19.00922 C 7.779215,99.688916 1.4917703,91.585815 1.0521939,90.725489 -0.51484691,87.658523 0.34483642,84.145662 3.2042113,81.931856 4.0158043,81.303501 13.12251,76.757493 23.441335,71.829618 33.76016,66.901744 43.110833,62.211251 44.220608,61.406302 c 2.633334,-1.910026 5.6121,-5.581765 7.09667,-8.747619 0.812343,-1.732332 2.715611,-9.223428 6.038555,-23.767224 5.369445,-23.5008843 5.334675,-23.4041499 8.994972,-25.023274 1.361971,-0.6024638 2.35862,-0.7636751 3.546708,-0.5736918 0.90884,0.1453294 10.132319,4.3625228 20.496614,9.3715418 10.364303,5.009018 19.975013,9.470798 21.357143,9.915065 2.89458,0.930426 9.5962,1.114743 12.54258,0.344962 0.9948,-0.259906 10.72571,-4.761615 21.62425,-10.003799 17.66508,-8.4968858 20.04428,-9.5316859 21.92355,-9.5353182 1.18518,-0.00229 2.70867,0.3126485 3.48005,0.7194057 2.85465,1.5052835 3.15653,2.4166288 8.34602,25.1955715 5.57854,24.486604 5.71498,24.866897 10.72989,29.908484 l 3.16205,3.178872 19.18311,9.186845 c 10.5507,5.052763 19.87158,9.633461 20.71305,10.179324 1.70481,1.105912 3.32364,4.003978 3.30927,5.924304 -0.005,0.680414 -0.35897,1.996005 -0.78639,2.923539 -0.42741,0.927535 -6.78375,9.180487 -14.12519,18.33989 -7.34144,9.15941 -13.81653,17.63552 -14.3891,18.83581 -1.39002,2.91394 -2.29672,6.92136 -2.30433,10.18469 -0.004,1.92396 1.35555,8.57122 4.86705,23.78787 5.36118,23.23196 5.36036,23.22489 2.99561,25.91819 -2.369,2.69814 -1.83793,2.64355 -25.7161,2.64355 -12.80148,0 -22.59807,0.17417 -23.93972,0.42562 -3.34086,0.62615 -8.68567,3.344 -11.25482,5.72312 -1.23097,1.13993 -8.15908,9.56665 -15.39581,18.72605 -11.09901,14.04784 -13.45088,16.80189 -15.03168,17.60209 -2.26459,1.14633 -3.88346,1.18581 -6.1222,0.1493 z m 11.38338,-63.49969 c 24.67488,-3.69542 44.34449,-22.93697 48.45009,-47.39568 0.87044,-5.18557 0.8649,-14.32409 -0.0118,-19.45612 C 172.07074,83.192397 158.65591,66.439583 140.45274,58.964752 113.90934,48.065143 83.406771,58.298989 68.771447,83.014369 57.609872,101.86347 58.148888,125.75478 70.145932,143.93654 c 8.077176,12.24114 20.273804,20.91779 34.336998,24.42728 7.12926,1.77911 15.18977,2.16521 22.46287,1.07596 z"
     id="path5090"
     inkscape:connector-curvature="0" />
  <path
     style="fill:#cd7f32;fill-opacity:0;stroke-width:0.42160675"
     d="m 115.56241,232.93947 c -2.17297,-1.00605 -1.73895,-0.50079 -16.450986,-19.15138 -6.917976,-8.76999 -13.398388,-16.66744 -14.40091,-17.5499 -1.002522,-0.88245 -3.12293,-2.28768 -4.712016,-3.12272 -5.205971,-2.73566 -5.783096,-2.78901 -30.245832,-2.79595 l -21.96264,-0.006 -1.835905,-0.97085 c -2.043023,-1.08038 -3.777606,-3.77859 -3.777606,-5.87621 0,-0.67845 2.181815,-10.68816 4.848478,-22.24381 2.676649,-11.59892 4.845198,-21.92302 4.841156,-23.04793 -0.01076,-2.99468 -1.073378,-7.50943 -2.455551,-10.43289 -0.795941,-1.6835 -5.745692,-8.22382 -14.386305,-19.00922 C 7.779215,99.688916 1.4917703,91.585815 1.0521939,90.725489 -0.51484691,87.658523 0.34483642,84.145662 3.2042113,81.931856 4.0158043,81.303501 13.12251,76.757493 23.441335,71.829618 33.76016,66.901744 43.110833,62.211251 44.220608,61.406302 c 2.633334,-1.910026 5.6121,-5.581765 7.09667,-8.747619 0.812343,-1.732332 2.715611,-9.223428 6.038555,-23.767224 5.369445,-23.5008843 5.334675,-23.4041499 8.994972,-25.023274 1.361971,-0.6024638 2.35862,-0.7636751 3.546708,-0.5736918 0.90884,0.1453294 10.132319,4.3625228 20.496614,9.3715418 10.364303,5.009018 19.975013,9.470798 21.357143,9.915065 2.89458,0.930426 9.5962,1.114743 12.54258,0.344962 0.9948,-0.259906 10.72571,-4.761615 21.62425,-10.003799 17.66508,-8.4968858 20.04428,-9.5316859 21.92355,-9.5353182 1.18518,-0.00229 2.70867,0.3126485 3.48005,0.7194057 2.85465,1.5052835 3.15653,2.4166288 8.34602,25.1955715 5.57854,24.486604 5.71498,24.866897 10.72989,29.908484 l 3.16205,3.178872 19.18311,9.186845 c 10.5507,5.052763 19.87158,9.633461 20.71305,10.179324 1.70481,1.105912 3.32364,4.003978 3.30927,5.924304 -0.005,0.680414 -0.35897,1.996005 -0.78639,2.923539 -0.42741,0.927535 -6.78375,9.180487 -14.12519,18.33989 -7.34144,9.15941 -13.81653,17.63552 -14.3891,18.83581 -1.39002,2.91394 -2.29672,6.92136 -2.30433,10.18469 -0.004,1.92396 1.35555,8.57122 4.86705,23.78787 5.36118,23.23196 5.36036,23.22489 2.99561,25.91819 -2.369,2.69814 -1.83793,2.64355 -25.7161,2.64355 -12.80148,0 -22.59807,0.17417 -23.93972,0.42562 -3.34086,0.62615 -8.68567,3.344 -11.25482,5.72312 -1.23097,1.13993 -8.15908,9.56665 -15.39581,18.72605 -11.09901,14.04784 -13.45088,16.80189 -15.03168,17.60209 -2.26459,1.14633 -3.88346,1.18581 -6.1222,0.1493 z m 11.38338,-63.49969 c 24.67488,-3.69542 44.34449,-22.93697 48.45009,-47.39568 0.87044,-5.18557 0.8649,-14.32409 -0.0118,-19.45612 C 172.07074,83.192397 158.65591,66.439583 140.45274,58.964752 113.90934,48.065143 83.406771,58.298989 68.771447,83.014369 57.609872,101.86347 58.148888,125.75478 70.145932,143.93654 c 8.077176,12.24114 20.273804,20.91779 34.336998,24.42728 7.12926,1.77911 15.18977,2.16521 22.46287,1.07596 z"
     id="path5094"
     inkscape:connector-curvature="0" />
  <path
     style="fill:#cd7f32;fill-opacity:0;stroke-width:0.42160675"
     d="m 115.56241,232.93947 c -2.17297,-1.00605 -1.73895,-0.50079 -16.450986,-19.15138 -6.917976,-8.76999 -13.398388,-16.66744 -14.40091,-17.5499 -1.002522,-0.88245 -3.12293,-2.28768 -4.712016,-3.12272 -5.205971,-2.73566 -5.783096,-2.78901 -30.245832,-2.79595 l -21.96264,-0.006 -1.835905,-0.97085 c -2.043023,-1.08038 -3.777606,-3.77859 -3.777606,-5.87621 0,-0.67845 2.181815,-10.68816 4.848478,-22.24381 2.676649,-11.59892 4.845198,-21.92302 4.841156,-23.04793 -0.01076,-2.99468 -1.073378,-7.50943 -2.455551,-10.43289 -0.795941,-1.6835 -5.745692,-8.22382 -14.386305,-19.00922 C 7.779215,99.688916 1.4917703,91.585815 1.0521939,90.725489 -0.51484691,87.658523 0.34483642,84.145662 3.2042113,81.931856 4.0158043,81.303501 13.12251,76.757493 23.441335,71.829618 33.76016,66.901744 43.110833,62.211251 44.220608,61.406302 c 2.633334,-1.910026 5.6121,-5.581765 7.09667,-8.747619 0.812343,-1.732332 2.715611,-9.223428 6.038555,-23.767224 5.369445,-23.5008843 5.334675,-23.4041499 8.994972,-25.023274 1.361971,-0.6024638 2.35862,-0.7636751 3.546708,-0.5736918 0.90884,0.1453294 10.132319,4.3625228 20.496614,9.3715418 10.364303,5.009018 19.975013,9.470798 21.357143,9.915065 2.89458,0.930426 9.5962,1.114743 12.54258,0.344962 0.9948,-0.259906 10.72571,-4.761615 21.62425,-10.003799 17.66508,-8.4968858 20.04428,-9.5316859 21.92355,-9.5353182 1.18518,-0.00229 2.70867,0.3126485 3.48005,0.7194057 2.85465,1.5052835 3.15653,2.4166288 8.34602,25.1955715 5.57854,24.486604 5.71498,24.866897 10.72989,29.908484 l 3.16205,3.178872 19.18311,9.186845 c 10.5507,5.052763 19.87158,9.633461 20.71305,10.179324 1.70481,1.105912 3.32364,4.003978 3.30927,5.924304 -0.005,0.680414 -0.35897,1.996005 -0.78639,2.923539 -0.42741,0.927535 -6.78375,9.180487 -14.12519,18.33989 -7.34144,9.15941 -13.81653,17.63552 -14.3891,18.83581 -1.39002,2.91394 -2.29672,6.92136 -2.30433,10.18469 -0.004,1.92396 1.35555,8.57122 4.86705,23.78787 5.36118,23.23196 5.36036,23.22489 2.99561,25.91819 -2.369,2.69814 -1.83793,2.64355 -25.7161,2.64355 -12.80148,0 -22.59807,0.17417 -23.93972,0.42562 -3.34086,0.62615 -8.68567,3.344 -11.25482,5.72312 -1.23097,1.13993 -8.15908,9.56665 -15.39581,18.72605 -11.09901,14.04784 -13.45088,16.80189 -15.03168,17.60209 -2.26459,1.14633 -3.88346,1.18581 -6.1222,0.1493 z m 11.38338,-63.49969 c 24.67488,-3.69542 44.34449,-22.93697 48.45009,-47.39568 0.87044,-5.18557 0.8649,-14.32409 -0.0118,-19.45612 C 172.07074,83.192397 158.65591,66.439583 140.45274,58.964752 113.90934,48.065143 83.406771,58.298989 68.771447,83.014369 57.609872,101.86347 58.148888,125.75478 70.145932,143.93654 c 8.077176,12.24114 20.273804,20.91779 34.336998,24.42728 7.12926,1.77911 15.18977,2.16521 22.46287,1.07596 z"
     id="path5096"
     inkscape:connector-curvature="0" />
  <path
     style="fill:#cd7f32;fill-opacity:0;stroke-width:0.42160675"
     d="m 115.56241,232.93947 c -2.17297,-1.00605 -1.73895,-0.50079 -16.450986,-19.15138 -6.917976,-8.76999 -13.398388,-16.66744 -14.40091,-17.5499 -1.002522,-0.88245 -3.12293,-2.28768 -4.712016,-3.12272 -5.205971,-2.73566 -5.783096,-2.78901 -30.245832,-2.79595 l -21.96264,-0.006 -1.835905,-0.97085 c -2.043023,-1.08038 -3.777606,-3.77859 -3.777606,-5.87621 0,-0.67845 2.181815,-10.68816 4.848478,-22.24381 2.676649,-11.59892 4.845198,-21.92302 4.841156,-23.04793 -0.01076,-2.99468 -1.073378,-7.50943 -2.455551,-10.43289 -0.795941,-1.6835 -5.745692,-8.22382 -14.386305,-19.00922 C 7.779215,99.688916 1.4917703,91.585815 1.0521939,90.725489 -0.51484691,87.658523 0.34483642,84.145662 3.2042113,81.931856 4.0158043,81.303501 13.12251,76.757493 23.441335,71.829618 33.76016,66.901744 43.110833,62.211251 44.220608,61.406302 c 2.633334,-1.910026 5.6121,-5.581765 7.09667,-8.747619 0.812343,-1.732332 2.715611,-9.223428 6.038555,-23.767224 5.369445,-23.5008843 5.334675,-23.4041499 8.994972,-25.023274 1.361971,-0.6024638 2.35862,-0.7636751 3.546708,-0.5736918 0.90884,0.1453294 10.132319,4.3625228 20.496614,9.3715418 10.364303,5.009018 19.975013,9.470798 21.357143,9.915065 2.89458,0.930426 9.5962,1.114743 12.54258,0.344962 0.9948,-0.259906 10.72571,-4.761615 21.62425,-10.003799 17.66508,-8.4968858 20.04428,-9.5316859 21.92355,-9.5353182 1.18518,-0.00229 2.70867,0.3126485 3.48005,0.7194057 2.85465,1.5052835 3.15653,2.4166288 8.34602,25.1955715 5.57854,24.486604 5.71498,24.866897 10.72989,29.908484 l 3.16205,3.178872 19.18311,9.186845 c 10.5507,5.052763 19.87158,9.633461 20.71305,10.179324 1.70481,1.105912 3.32364,4.003978 3.30927,5.924304 -0.005,0.680414 -0.35897,1.996005 -0.78639,2.923539 -0.42741,0.927535 -6.78375,9.180487 -14.12519,18.33989 -7.34144,9.15941 -13.81653,17.63552 -14.3891,18.83581 -1.39002,2.91394 -2.29672,6.92136 -2.30433,10.18469 -0.004,1.92396 1.35555,8.57122 4.86705,23.78787 5.36118,23.23196 5.36036,23.22489 2.99561,25.91819 -2.369,2.69814 -1.83793,2.64355 -25.7161,2.64355 -12.80148,0 -22.59807,0.17417 -23.93972,0.42562 -3.34086,0.62615 -8.68567,3.344 -11.25482,5.72312 -1.23097,1.13993 -8.15908,9.56665 -15.39581,18.72605 -11.09901,14.04784 -13.45088,16.80189 -15.03168,17.60209 -2.26459,1.14633 -3.88346,1.18581 -6.1222,0.1493 z m 11.38338,-63.49969 c 24.67488,-3.69542 44.34449,-22.93697 48.45009,-47.39568 0.87044,-5.18557 0.8649,-14.32409 -0.0118,-19.45612 C 172.07074,83.192397 158.65591,66.439583 140.45274,58.964752 113.90934,48.065143 83.406771,58.298989 68.771447,83.014369 57.609872,101.86347 58.148888,125.75478 70.145932,143.93654 c 8.077176,12.24114 20.273804,20.91779 34.336998,24.42728 7.12926,1.77911 15.18977,2.16521 22.46287,1.07596 z"
     id="path5098"
     inkscape:connector-curvature="0" />
  <path
     style="fill:#cd7f32;fill-opacity:0;stroke-width:0.42160675"
     d="m 115.56241,232.93947 c -2.17297,-1.00605 -1.73895,-0.50079 -16.450986,-19.15138 -6.917976,-8.76999 -13.398388,-16.66744 -14.40091,-17.5499 -1.002522,-0.88245 -3.12293,-2.28768 -4.712016,-3.12272 -5.205971,-2.73566 -5.783096,-2.78901 -30.245832,-2.79595 l -21.96264,-0.006 -1.835905,-0.97085 c -2.043023,-1.08038 -3.777606,-3.77859 -3.777606,-5.87621 0,-0.67845 2.181815,-10.68816 4.848478,-22.24381 2.676649,-11.59892 4.845198,-21.92302 4.841156,-23.04793 -0.01076,-2.99468 -1.073378,-7.50943 -2.455551,-10.43289 -0.795941,-1.6835 -5.745692,-8.22382 -14.386305,-19.00922 C 7.779215,99.688916 1.4917703,91.585815 1.0521939,90.725489 -0.51484691,87.658523 0.34483642,84.145662 3.2042113,81.931856 4.0158043,81.303501 13.12251,76.757493 23.441335,71.829618 33.76016,66.901744 43.110833,62.211251 44.220608,61.406302 c 2.633334,-1.910026 5.6121,-5.581765 7.09667,-8.747619 0.812343,-1.732332 2.715611,-9.223428 6.038555,-23.767224 5.369445,-23.5008843 5.334675,-23.4041499 8.994972,-25.023274 1.361971,-0.6024638 2.35862,-0.7636751 3.546708,-0.5736918 0.90884,0.1453294 10.132319,4.3625228 20.496614,9.3715418 10.364303,5.009018 19.975013,9.470798 21.357143,9.915065 2.89458,0.930426 9.5962,1.114743 12.54258,0.344962 0.9948,-0.259906 10.72571,-4.761615 21.62425,-10.003799 17.66508,-8.4968858 20.04428,-9.5316859 21.92355,-9.5353182 1.18518,-0.00229 2.70867,0.3126485 3.48005,0.7194057 2.85465,1.5052835 3.15653,2.4166288 8.34602,25.1955715 5.57854,24.486604 5.71498,24.866897 10.72989,29.908484 l 3.16205,3.178872 19.18311,9.186845 c 10.5507,5.052763 19.87158,9.633461 20.71305,10.179324 1.70481,1.105912 3.32364,4.003978 3.30927,5.924304 -0.005,0.680414 -0.35897,1.996005 -0.78639,2.923539 -0.42741,0.927535 -6.78375,9.180487 -14.12519,18.33989 -7.34144,9.15941 -13.81653,17.63552 -14.3891,18.83581 -1.39002,2.91394 -2.29672,6.92136 -2.30433,10.18469 -0.004,1.92396 1.35555,8.57122 4.86705,23.78787 5.36118,23.23196 5.36036,23.22489 2.99561,25.91819 -2.369,2.69814 -1.83793,2.64355 -25.7161,2.64355 -12.80148,0 -22.59807,0.17417 -23.93972,0.42562 -3.34086,0.62615 -8.68567,3.344 -11.25482,5.72312 -1.23097,1.13993 -8.15908,9.56665 -15.39581,18.72605 -11.09901,14.04784 -13.45088,16.80189 -15.03168,17.60209 -2.26459,1.14633 -3.88346,1.18581 -6.1222,0.1493 z m 11.38338,-63.49969 c 24.67488,-3.69542 44.34449,-22.93697 48.45009,-47.39568 0.87044,-5.18557 0.8649,-14.32409 -0.0118,-19.45612 C 172.07074,83.192397 158.65591,66.439583 140.45274,58.964752 113.90934,48.065143 83.406771,58.298989 68.771447,83.014369 57.609872,101.86347 58.148888,125.75478 70.145932,143.93654 c 8.077176,12.24114 20.273804,20.91779 34.336998,24.42728 7.12926,1.77911 15.18977,2.16521 22.46287,1.07596 z"
     id="path5100"
     inkscape:connector-curvature="0" />
  <path
     style="fill:#cd7f32;fill-opacity:0;stroke-width:0.42160675"
     d="m 115.56241,232.93947 c -2.17297,-1.00605 -1.73895,-0.50079 -16.450986,-19.15138 -6.917976,-8.76999 -13.398388,-16.66744 -14.40091,-17.5499 -1.002522,-0.88245 -3.12293,-2.28768 -4.712016,-3.12272 -5.205971,-2.73566 -5.783096,-2.78901 -30.245832,-2.79595 l -21.96264,-0.006 -1.835905,-0.97085 c -2.043023,-1.08038 -3.777606,-3.77859 -3.777606,-5.87621 0,-0.67845 2.181815,-10.68816 4.848478,-22.24381 2.676649,-11.59892 4.845198,-21.92302 4.841156,-23.04793 -0.01076,-2.99468 -1.073378,-7.50943 -2.455551,-10.43289 -0.795941,-1.6835 -5.745692,-8.22382 -14.386305,-19.00922 C 7.779215,99.688916 1.4917703,91.585815 1.0521939,90.725489 -0.51484691,87.658523 0.34483642,84.145662 3.2042113,81.931856 4.0158043,81.303501 13.12251,76.757493 23.441335,71.829618 33.76016,66.901744 43.110833,62.211251 44.220608,61.406302 c 2.633334,-1.910026 5.6121,-5.581765 7.09667,-8.747619 0.812343,-1.732332 2.715611,-9.223428 6.038555,-23.767224 5.369445,-23.5008843 5.334675,-23.4041499 8.994972,-25.023274 1.361971,-0.6024638 2.35862,-0.7636751 3.546708,-0.5736918 0.90884,0.1453294 10.132319,4.3625228 20.496614,9.3715418 10.364303,5.009018 19.975013,9.470798 21.357143,9.915065 2.89458,0.930426 9.5962,1.114743 12.54258,0.344962 0.9948,-0.259906 10.72571,-4.761615 21.62425,-10.003799 17.66508,-8.4968858 20.04428,-9.5316859 21.92355,-9.5353182 1.18518,-0.00229 2.70867,0.3126485 3.48005,0.7194057 2.85465,1.5052835 3.15653,2.4166288 8.34602,25.1955715 5.57854,24.486604 5.71498,24.866897 10.72989,29.908484 l 3.16205,3.178872 19.18311,9.186845 c 10.5507,5.052763 19.87158,9.633461 20.71305,10.179324 1.70481,1.105912 3.32364,4.003978 3.30927,5.924304 -0.005,0.680414 -0.35897,1.996005 -0.78639,2.923539 -0.42741,0.927535 -6.78375,9.180487 -14.12519,18.33989 -7.34144,9.15941 -13.81653,17.63552 -14.3891,18.83581 -1.39002,2.91394 -2.29672,6.92136 -2.30433,10.18469 -0.004,1.92396 1.35555,8.57122 4.86705,23.78787 5.36118,23.23196 5.36036,23.22489 2.99561,25.91819 -2.369,2.69814 -1.83793,2.64355 -25.7161,2.64355 -12.80148,0 -22.59807,0.17417 -23.93972,0.42562 -3.34086,0.62615 -8.68567,3.344 -11.25482,5.72312 -1.23097,1.13993 -8.15908,9.56665 -15.39581,18.72605 -11.09901,14.04784 -13.45088,16.80189 -15.03168,17.60209 -2.26459,1.14633 -3.88346,1.18581 -6.1222,0.1493 z m 11.38338,-63.49969 c 24.67488,-3.69542 44.34449,-22.93697 48.45009,-47.39568 0.87044,-5.18557 0.8649,-14.32409 -0.0118,-19.45612 C 172.07074,83.192397 158.65591,66.439583 140.45274,58.964752 113.90934,48.065143 83.406771,58.298989 68.771447,83.014369 57.609872,101.86347 58.148888,125.75478 70.145932,143.93654 c 8.077176,12.24114 20.273804,20.91779 34.336998,24.42728 7.12926,1.77911 15.18977,2.16521 22.46287,1.07596 z"
     id="path5102"
     inkscape:connector-curvature="0" />
  <path
     style="fill:#cd7f32;fill-opacity:0;stroke-width:0.42160675"
     d="m 115.56241,232.93947 c -2.17297,-1.00605 -1.73895,-0.50079 -16.450986,-19.15138 -6.917976,-8.76999 -13.398388,-16.66744 -14.40091,-17.5499 -1.002522,-0.88245 -3.12293,-2.28768 -4.712016,-3.12272 -5.205971,-2.73566 -5.783096,-2.78901 -30.245832,-2.79595 l -21.96264,-0.006 -1.835905,-0.97085 c -2.043023,-1.08038 -3.777606,-3.77859 -3.777606,-5.87621 0,-0.67845 2.181815,-10.68816 4.848478,-22.24381 2.676649,-11.59892 4.845198,-21.92302 4.841156,-23.04793 -0.01076,-2.99468 -1.073378,-7.50943 -2.455551,-10.43289 -0.795941,-1.6835 -5.745692,-8.22382 -14.386305,-19.00922 C 7.779215,99.688916 1.4917703,91.585815 1.0521939,90.725489 -0.51484691,87.658523 0.34483642,84.145662 3.2042113,81.931856 4.0158043,81.303501 13.12251,76.757493 23.441335,71.829618 33.76016,66.901744 43.110833,62.211251 44.220608,61.406302 c 2.633334,-1.910026 5.6121,-5.581765 7.09667,-8.747619 0.812343,-1.732332 2.715611,-9.223428 6.038555,-23.767224 5.369445,-23.5008843 5.334675,-23.4041499 8.994972,-25.023274 1.361971,-0.6024638 2.35862,-0.7636751 3.546708,-0.5736918 0.90884,0.1453294 10.132319,4.3625228 20.496614,9.3715418 10.364303,5.009018 19.975013,9.470798 21.357143,9.915065 2.89458,0.930426 9.5962,1.114743 12.54258,0.344962 0.9948,-0.259906 10.72571,-4.761615 21.62425,-10.003799 17.66508,-8.4968858 20.04428,-9.5316859 21.92355,-9.5353182 1.18518,-0.00229 2.70867,0.3126485 3.48005,0.7194057 2.85465,1.5052835 3.15653,2.4166288 8.34602,25.1955715 5.57854,24.486604 5.71498,24.866897 10.72989,29.908484 l 3.16205,3.178872 19.18311,9.186845 c 10.5507,5.052763 19.87158,9.633461 20.71305,10.179324 1.70481,1.105912 3.32364,4.003978 3.30927,5.924304 -0.005,0.680414 -0.35897,1.996005 -0.78639,2.923539 -0.42741,0.927535 -6.78375,9.180487 -14.12519,18.33989 -7.34144,9.15941 -13.81653,17.63552 -14.3891,18.83581 -1.39002,2.91394 -2.29672,6.92136 -2.30433,10.18469 -0.004,1.92396 1.35555,8.57122 4.86705,23.78787 5.36118,23.23196 5.36036,23.22489 2.99561,25.91819 -2.369,2.69814 -1.83793,2.64355 -25.7161,2.64355 -12.80148,0 -22.59807,0.17417 -23.93972,0.42562 -3.34086,0.62615 -8.68567,3.344 -11.25482,5.72312 -1.23097,1.13993 -8.15908,9.56665 -15.39581,18.72605 -11.09901,14.04784 -13.45088,16.80189 -15.03168,17.60209 -2.26459,1.14633 -3.88346,1.18581 -6.1222,0.1493 z m 11.38338,-63.49969 c 24.67488,-3.69542 44.34449,-22.93697 48.45009,-47.39568 0.87044,-5.18557 0.8649,-14.32409 -0.0118,-19.45612 C 172.07074,83.192397 158.65591,66.439583 140.45274,58.964752 113.90934,48.065143 83.406771,58.298989 68.771447,83.014369 57.609872,101.86347 58.148888,125.75478 70.145932,143.93654 c 8.077176,12.24114 20.273804,20.91779 34.336998,24.42728 7.12926,1.77911 15.18977,2.16521 22.46287,1.07596 z"
     id="path5104"
     inkscape:connector-curvature="0" />
  <path
     style="fill:#cd7f32;fill-opacity:0;stroke-width:0.42160675"
     d="m 115.56241,232.93947 c -2.17297,-1.00605 -1.73895,-0.50079 -16.450986,-19.15138 -6.917976,-8.76999 -13.398388,-16.66744 -14.40091,-17.5499 -1.002522,-0.88245 -3.12293,-2.28768 -4.712016,-3.12272 -5.205971,-2.73566 -5.783096,-2.78901 -30.245832,-2.79595 l -21.96264,-0.006 -1.835905,-0.97085 c -2.043023,-1.08038 -3.777606,-3.77859 -3.777606,-5.87621 0,-0.67845 2.181815,-10.68816 4.848478,-22.24381 2.676649,-11.59892 4.845198,-21.92302 4.841156,-23.04793 -0.01076,-2.99468 -1.073378,-7.50943 -2.455551,-10.43289 -0.795941,-1.6835 -5.745692,-8.22382 -14.386305,-19.00922 C 7.779215,99.688916 1.4917703,91.585815 1.0521939,90.725489 -0.51484691,87.658523 0.34483642,84.145662 3.2042113,81.931856 4.0158043,81.303501 13.12251,76.757493 23.441335,71.829618 33.76016,66.901744 43.110833,62.211251 44.220608,61.406302 c 2.633334,-1.910026 5.6121,-5.581765 7.09667,-8.747619 0.812343,-1.732332 2.715611,-9.223428 6.038555,-23.767224 5.369445,-23.5008843 5.334675,-23.4041499 8.994972,-25.023274 1.361971,-0.6024638 2.35862,-0.7636751 3.546708,-0.5736918 0.90884,0.1453294 10.132319,4.3625228 20.496614,9.3715418 10.364303,5.009018 19.975013,9.470798 21.357143,9.915065 2.89458,0.930426 9.5962,1.114743 12.54258,0.344962 0.9948,-0.259906 10.72571,-4.761615 21.62425,-10.003799 17.66508,-8.4968858 20.04428,-9.5316859 21.92355,-9.5353182 1.18518,-0.00229 2.70867,0.3126485 3.48005,0.7194057 2.85465,1.5052835 3.15653,2.4166288 8.34602,25.1955715 5.57854,24.486604 5.71498,24.866897 10.72989,29.908484 l 3.16205,3.178872 19.18311,9.186845 c 10.5507,5.052763 19.87158,9.633461 20.71305,10.179324 1.70481,1.105912 3.32364,4.003978 3.30927,5.924304 -0.005,0.680414 -0.35897,1.996005 -0.78639,2.923539 -0.42741,0.927535 -6.78375,9.180487 -14.12519,18.33989 -7.34144,9.15941 -13.81653,17.63552 -14.3891,18.83581 -1.39002,2.91394 -2.29672,6.92136 -2.30433,10.18469 -0.004,1.92396 1.35555,8.57122 4.86705,23.78787 5.36118,23.23196 5.36036,23.22489 2.99561,25.91819 -2.369,2.69814 -1.83793,2.64355 -25.7161,2.64355 -12.80148,0 -22.59807,0.17417 -23.93972,0.42562 -3.34086,0.62615 -8.68567,3.344 -11.25482,5.72312 -1.23097,1.13993 -8.15908,9.56665 -15.39581,18.72605 -11.09901,14.04784 -13.45088,16.80189 -15.03168,17.60209 -2.26459,1.14633 -3.88346,1.18581 -6.1222,0.1493 z m 11.38338,-63.49969 c 24.67488,-3.69542 44.34449,-22.93697 48.45009,-47.39568 0.87044,-5.18557 0.8649,-14.32409 -0.0118,-19.45612 C 172.07074,83.192397 158.65591,66.439583 140.45274,58.964752 113.90934,48.065143 83.406771,58.298989 68.771447,83.014369 57.609872,101.86347 58.148888,125.75478 70.145932,143.93654 c 8.077176,12.24114 20.273804,20.91779 34.336998,24.42728 7.12926,1.77911 15.18977,2.16521 22.46287,1.07596 z"
     id="path5106"
     inkscape:connector-curvature="0" />
  <path
     style="fill:#cd7f32;fill-opacity:0;stroke-width:0.42160675"
     d="m 115.56241,232.93947 c -2.17297,-1.00605 -1.73895,-0.50079 -16.450986,-19.15138 -6.917976,-8.76999 -13.398388,-16.66744 -14.40091,-17.5499 -1.002522,-0.88245 -3.12293,-2.28768 -4.712016,-3.12272 -5.205971,-2.73566 -5.783096,-2.78901 -30.245832,-2.79595 l -21.96264,-0.006 -1.835905,-0.97085 c -2.043023,-1.08038 -3.777606,-3.77859 -3.777606,-5.87621 0,-0.67845 2.181815,-10.68816 4.848478,-22.24381 2.676649,-11.59892 4.845198,-21.92302 4.841156,-23.04793 -0.01076,-2.99468 -1.073378,-7.50943 -2.455551,-10.43289 -0.795941,-1.6835 -5.745692,-8.22382 -14.386305,-19.00922 C 7.779215,99.688916 1.4917703,91.585815 1.0521939,90.725489 -0.51484691,87.658523 0.34483642,84.145662 3.2042113,81.931856 4.0158043,81.303501 13.12251,76.757493 23.441335,71.829618 33.76016,66.901744 43.110833,62.211251 44.220608,61.406302 c 2.633334,-1.910026 5.6121,-5.581765 7.09667,-8.747619 0.812343,-1.732332 2.715611,-9.223428 6.038555,-23.767224 5.369445,-23.5008843 5.334675,-23.4041499 8.994972,-25.023274 1.361971,-0.6024638 2.35862,-0.7636751 3.546708,-0.5736918 0.90884,0.1453294 10.132319,4.3625228 20.496614,9.3715418 10.364303,5.009018 19.975013,9.470798 21.357143,9.915065 2.89458,0.930426 9.5962,1.114743 12.54258,0.344962 0.9948,-0.259906 10.72571,-4.761615 21.62425,-10.003799 17.66508,-8.4968858 20.04428,-9.5316859 21.92355,-9.5353182 1.18518,-0.00229 2.70867,0.3126485 3.48005,0.7194057 2.85465,1.5052835 3.15653,2.4166288 8.34602,25.1955715 5.57854,24.486604 5.71498,24.866897 10.72989,29.908484 l 3.16205,3.178872 19.18311,9.186845 c 10.5507,5.052763 19.87158,9.633461 20.71305,10.179324 1.70481,1.105912 3.32364,4.003978 3.30927,5.924304 -0.005,0.680414 -0.35897,1.996005 -0.78639,2.923539 -0.42741,0.927535 -6.78375,9.180487 -14.12519,18.33989 -7.34144,9.15941 -13.81653,17.63552 -14.3891,18.83581 -1.39002,2.91394 -2.29672,6.92136 -2.30433,10.18469 -0.004,1.92396 1.35555,8.57122 4.86705,23.78787 5.36118,23.23196 5.36036,23.22489 2.99561,25.91819 -2.369,2.69814 -1.83793,2.64355 -25.7161,2.64355 -12.80148,0 -22.59807,0.17417 -23.93972,0.42562 -3.34086,0.62615 -8.68567,3.344 -11.25482,5.72312 -1.23097,1.13993 -8.15908,9.56665 -15.39581,18.72605 -11.09901,14.04784 -13.45088,16.80189 -15.03168,17.60209 -2.26459,1.14633 -3.88346,1.18581 -6.1222,0.1493 z m 11.38338,-63.49969 c 24.67488,-3.69542 44.34449,-22.93697 48.45009,-47.39568 0.87044,-5.18557 0.8649,-14.32409 -0.0118,-19.45612 C 172.07074,83.192397 158.65591,66.439583 140.45274,58.964752 113.90934,48.065143 83.406771,58.298989 68.771447,83.014369 57.609872,101.86347 58.148888,125.75478 70.145932,143.93654 c 8.077176,12.24114 20.273804,20.91779 34.336998,24.42728 7.12926,1.77911 15.18977,2.16521 22.46287,1.07596 z"
     id="path5108"
     inkscape:connector-curvature="0" />
  <path
     style="fill:#cd7f32;fill-opacity:0;stroke-width:0.42160675"
     d="m 115.56241,232.93947 c -2.17297,-1.00605 -1.73895,-0.50079 -16.450986,-19.15138 -6.917976,-8.76999 -13.398388,-16.66744 -14.40091,-17.5499 -1.002522,-0.88245 -3.12293,-2.28768 -4.712016,-3.12272 -5.205971,-2.73566 -5.783096,-2.78901 -30.245832,-2.79595 l -21.96264,-0.006 -1.835905,-0.97085 c -2.043023,-1.08038 -3.777606,-3.77859 -3.777606,-5.87621 0,-0.67845 2.181815,-10.68816 4.848478,-22.24381 2.676649,-11.59892 4.845198,-21.92302 4.841156,-23.04793 -0.01076,-2.99468 -1.073378,-7.50943 -2.455551,-10.43289 -0.795941,-1.6835 -5.745692,-8.22382 -14.386305,-19.00922 C 7.779215,99.688916 1.4917703,91.585815 1.0521939,90.725489 -0.51484691,87.658523 0.34483642,84.145662 3.2042113,81.931856 4.0158043,81.303501 13.12251,76.757493 23.441335,71.829618 33.76016,66.901744 43.110833,62.211251 44.220608,61.406302 c 2.633334,-1.910026 5.6121,-5.581765 7.09667,-8.747619 0.812343,-1.732332 2.715611,-9.223428 6.038555,-23.767224 5.369445,-23.5008843 5.334675,-23.4041499 8.994972,-25.023274 1.361971,-0.6024638 2.35862,-0.7636751 3.546708,-0.5736918 0.90884,0.1453294 10.132319,4.3625228 20.496614,9.3715418 10.364303,5.009018 19.975013,9.470798 21.357143,9.915065 2.89458,0.930426 9.5962,1.114743 12.54258,0.344962 0.9948,-0.259906 10.72571,-4.761615 21.62425,-10.003799 17.66508,-8.4968858 20.04428,-9.5316859 21.92355,-9.5353182 1.18518,-0.00229 2.70867,0.3126485 3.48005,0.7194057 2.85465,1.5052835 3.15653,2.4166288 8.34602,25.1955715 5.57854,24.486604 5.71498,24.866897 10.72989,29.908484 l 3.16205,3.178872 19.18311,9.186845 c 10.5507,5.052763 19.87158,9.633461 20.71305,10.179324 1.70481,1.105912 3.32364,4.003978 3.30927,5.924304 -0.005,0.680414 -0.35897,1.996005 -0.78639,2.923539 -0.42741,0.927535 -6.78375,9.180487 -14.12519,18.33989 -7.34144,9.15941 -13.81653,17.63552 -14.3891,18.83581 -1.39002,2.91394 -2.29672,6.92136 -2.30433,10.18469 -0.004,1.92396 1.35555,8.57122 4.86705,23.78787 5.36118,23.23196 5.36036,23.22489 2.99561,25.91819 -2.369,2.69814 -1.83793,2.64355 -25.7161,2.64355 -12.80148,0 -22.59807,0.17417 -23.93972,0.42562 -3.34086,0.62615 -8.68567,3.344 -11.25482,5.72312 -1.23097,1.13993 -8.15908,9.56665 -15.39581,18.72605 -11.09901,14.04784 -13.45088,16.80189 -15.03168,17.60209 -2.26459,1.14633 -3.88346,1.18581 -6.1222,0.1493 z m 11.38338,-63.49969 c 24.67488,-3.69542 44.34449,-22.93697 48.45009,-47.39568 0.87044,-5.18557 0.8649,-14.32409 -0.0118,-19.45612 C 172.07074,83.192397 158.65591,66.439583 140.45274,58.964752 113.90934,48.065143 83.406771,58.298989 68.771447,83.014369 57.609872,101.86347 58.148888,125.75478 70.145932,143.93654 c 8.077176,12.24114 20.273804,20.91779 34.336998,24.42728 7.12926,1.77911 15.18977,2.16521 22.46287,1.07596 z"
     id="path5110"
     inkscape:connector-curvature="0" />
  <path
     style="fill:#cd7f32;fill-opacity:0;stroke-width:0.42160675"
     d="m 115.56241,232.93947 c -2.17297,-1.00605 -1.73895,-0.50079 -16.450986,-19.15138 -6.917976,-8.76999 -13.398388,-16.66744 -14.40091,-17.5499 -1.002522,-0.88245 -3.12293,-2.28768 -4.712016,-3.12272 -5.205971,-2.73566 -5.783096,-2.78901 -30.245832,-2.79595 l -21.96264,-0.006 -1.835905,-0.97085 c -2.043023,-1.08038 -3.777606,-3.77859 -3.777606,-5.87621 0,-0.67845 2.181815,-10.68816 4.848478,-22.24381 2.676649,-11.59892 4.845198,-21.92302 4.841156,-23.04793 -0.01076,-2.99468 -1.073378,-7.50943 -2.455551,-10.43289 -0.795941,-1.6835 -5.745692,-8.22382 -14.386305,-19.00922 C 7.779215,99.688916 1.4917703,91.585815 1.0521939,90.725489 -0.51484691,87.658523 0.34483642,84.145662 3.2042113,81.931856 4.0158043,81.303501 13.12251,76.757493 23.441335,71.829618 33.76016,66.901744 43.110833,62.211251 44.220608,61.406302 c 2.633334,-1.910026 5.6121,-5.581765 7.09667,-8.747619 0.812343,-1.732332 2.715611,-9.223428 6.038555,-23.767224 5.369445,-23.5008843 5.334675,-23.4041499 8.994972,-25.023274 1.361971,-0.6024638 2.35862,-0.7636751 3.546708,-0.5736918 0.90884,0.1453294 10.132319,4.3625228 20.496614,9.3715418 10.364303,5.009018 19.975013,9.470798 21.357143,9.915065 2.89458,0.930426 9.5962,1.114743 12.54258,0.344962 0.9948,-0.259906 10.72571,-4.761615 21.62425,-10.003799 17.66508,-8.4968858 20.04428,-9.5316859 21.92355,-9.5353182 1.18518,-0.00229 2.70867,0.3126485 3.48005,0.7194057 2.85465,1.5052835 3.15653,2.4166288 8.34602,25.1955715 5.57854,24.486604 5.71498,24.866897 10.72989,29.908484 l 3.16205,3.178872 19.18311,9.186845 c 10.5507,5.052763 19.87158,9.633461 20.71305,10.179324 1.70481,1.105912 3.32364,4.003978 3.30927,5.924304 -0.005,0.680414 -0.35897,1.996005 -0.78639,2.923539 -0.42741,0.927535 -6.78375,9.180487 -14.12519,18.33989 -7.34144,9.15941 -13.81653,17.63552 -14.3891,18.83581 -1.39002,2.91394 -2.29672,6.92136 -2.30433,10.18469 -0.004,1.92396 1.35555,8.57122 4.86705,23.78787 5.36118,23.23196 5.36036,23.22489 2.99561,25.91819 -2.369,2.69814 -1.83793,2.64355 -25.7161,2.64355 -12.80148,0 -22.59807,0.17417 -23.93972,0.42562 -3.34086,0.62615 -8.68567,3.344 -11.25482,5.72312 -1.23097,1.13993 -8.15908,9.56665 -15.39581,18.72605 -11.09901,14.04784 -13.45088,16.80189 -15.03168,17.60209 -2.26459,1.14633 -3.88346,1.18581 -6.1222,0.1493 z m 11.38338,-63.49969 c 24.67488,-3.69542 44.34449,-22.93697 48.45009,-47.39568 0.87044,-5.18557 0.8649,-14.32409 -0.0118,-19.45612 C 172.07074,83.192397 158.65591,66.439583 140.45274,58.964752 113.90934,48.065143 83.406771,58.298989 68.771447,83.014369 57.609872,101.86347 58.148888,125.75478 70.145932,143.93654 c 8.077176,12.24114 20.273804,20.91779 34.336998,24.42728 7.12926,1.77911 15.18977,2.16521 22.46287,1.07596 z"
     id="path5112"
     inkscape:connector-curvature="0" />
  <path
     style="fill:#cd7f32;fill-opacity:0;stroke-width:0.42160675"
     d="M 109.65992,169.06743 C 85.258923,165.01998 66.695918,146.79021 61.959969,122.2238 c -1.519145,-7.88015 -0.772809,-19.07285 1.813286,-27.193639 1.524607,-4.78753 5.694926,-12.849395 8.723712,-16.86427 21.511224,-28.514677 63.094013,-31.024319 87.464363,-5.278727 14.60255,15.426591 19.53729,37.455126 12.88927,57.537366 -6.30462,19.04492 -22.2709,33.39162 -42.32115,38.02818 -4.6808,1.08242 -16.03381,1.41683 -20.86953,0.61472 z m -2.26076,-30.77264 11.08622,-5.69368 11.50292,5.90903 c 10.13616,5.20692 11.50293,5.80295 11.50293,5.01631 0,-0.491 -0.85551,-6.24051 -1.90113,-12.7767 l -1.90113,-11.88398 9.15449,-9.16159 c 5.03497,-5.03887 9.0541,-9.26196 8.93141,-9.38465 -0.1227,-0.1227 -5.90053,-1.126457 -12.83965,-2.230591 L 130.31865,96.08143 124.47761,84.55364 c -3.21256,-6.340285 -5.98836,-11.367327 -6.16842,-11.171205 -0.18006,0.196122 -2.90694,5.39323 -6.05973,11.549128 l -5.73234,11.192542 -12.51669,1.982061 c -6.884178,1.090136 -12.618921,2.084294 -12.743873,2.209254 -0.124952,0.12495 3.878212,4.34656 8.895919,9.38135 l 9.123105,9.15417 -1.849398,11.59419 c -1.017168,6.3768 -1.952675,12.13594 -2.078904,12.79808 -0.176117,0.92384 -0.09049,1.15055 0.368081,0.97458 0.328674,-0.12613 5.58638,-2.79148 11.6838,-5.923 z"
     id="path5114"
     inkscape:connector-curvature="0" />
  <path
     style="fill:#cd7f32;fill-opacity:0;stroke-width:0.42160675"
     d="M 109.65992,169.06743 C 85.258923,165.01998 66.695918,146.79021 61.959969,122.2238 c -1.519145,-7.88015 -0.772809,-19.07285 1.813286,-27.193639 1.524607,-4.78753 5.694926,-12.849395 8.723712,-16.86427 21.511224,-28.514677 63.094013,-31.024319 87.464363,-5.278727 14.60255,15.426591 19.53729,37.455126 12.88927,57.537366 -6.30462,19.04492 -22.2709,33.39162 -42.32115,38.02818 -4.6808,1.08242 -16.03381,1.41683 -20.86953,0.61472 z m -2.26076,-30.77264 11.08622,-5.69368 11.50292,5.90903 c 10.13616,5.20692 11.50293,5.80295 11.50293,5.01631 0,-0.491 -0.85551,-6.24051 -1.90113,-12.7767 l -1.90113,-11.88398 9.15449,-9.16159 c 5.03497,-5.03887 9.0541,-9.26196 8.93141,-9.38465 -0.1227,-0.1227 -5.90053,-1.126457 -12.83965,-2.230591 L 130.31865,96.08143 124.47761,84.55364 c -3.21256,-6.340285 -5.98836,-11.367327 -6.16842,-11.171205 -0.18006,0.196122 -2.90694,5.39323 -6.05973,11.549128 l -5.73234,11.192542 -12.51669,1.982061 c -6.884178,1.090136 -12.618921,2.084294 -12.743873,2.209254 -0.124952,0.12495 3.878212,4.34656 8.895919,9.38135 l 9.123105,9.15417 -1.849398,11.59419 c -1.017168,6.3768 -1.952675,12.13594 -2.078904,12.79808 -0.176117,0.92384 -0.09049,1.15055 0.368081,0.97458 0.328674,-0.12613 5.58638,-2.79148 11.6838,-5.923 z"
     id="path5116"
     inkscape:connector-curvature="0" />
  <path
     style="fill:#cd7f32;fill-opacity:0;stroke-width:0.42160675"
     d="M 109.65992,169.06743 C 85.258923,165.01998 66.695918,146.79021 61.959969,122.2238 c -1.519145,-7.88015 -0.772809,-19.07285 1.813286,-27.193639 1.524607,-4.78753 5.694926,-12.849395 8.723712,-16.86427 21.511224,-28.514677 63.094013,-31.024319 87.464363,-5.278727 14.60255,15.426591 19.53729,37.455126 12.88927,57.537366 -6.30462,19.04492 -22.2709,33.39162 -42.32115,38.02818 -4.6808,1.08242 -16.03381,1.41683 -20.86953,0.61472 z m -2.26076,-30.77264 11.08622,-5.69368 11.50292,5.90903 c 10.13616,5.20692 11.50293,5.80295 11.50293,5.01631 0,-0.491 -0.85551,-6.24051 -1.90113,-12.7767 l -1.90113,-11.88398 9.15449,-9.16159 c 5.03497,-5.03887 9.0541,-9.26196 8.93141,-9.38465 -0.1227,-0.1227 -5.90053,-1.126457 -12.83965,-2.230591 L 130.31865,96.08143 124.47761,84.55364 c -3.21256,-6.340285 -5.98836,-11.367327 -6.16842,-11.171205 -0.18006,0.196122 -2.90694,5.39323 -6.05973,11.549128 l -5.73234,11.192542 -12.51669,1.982061 c -6.884178,1.090136 -12.618921,2.084294 -12.743873,2.209254 -0.124952,0.12495 3.878212,4.34656 8.895919,9.38135 l 9.123105,9.15417 -1.849398,11.59419 c -1.017168,6.3768 -1.952675,12.13594 -2.078904,12.79808 -0.176117,0.92384 -0.09049,1.15055 0.368081,0.97458 0.328674,-0.12613 5.58638,-2.79148 11.6838,-5.923 z"
     id="path5118"
     inkscape:connector-curvature="0" />
  <use
     id="use5120"
     inkscape:spray-origin="#path5118"
     xlink:href="#path5118"
     x="0"
     y="0"
     width="100%"
     height="100%"
     transform="translate(-75.635706,-31.294331)" />
  <use
     id="use5122"
     inkscape:spray-origin="#path5118"
     xlink:href="#path5118"
     x="0"
     y="0"
     width="100%"
     height="100%"
     transform="translate(-80.592207,-28.233133)" />
  <use
     id="use5124"
     inkscape:spray-origin="#path5118"
     xlink:href="#path5118"
     x="0"
     y="0"
     width="100%"
     height="100%"
     transform="translate(-72.966274,-26.095637)" />
  <use
     id="use5126"
     inkscape:spray-origin="#path5118"
     xlink:href="#path5118"
     x="0"
     y="0"
     width="100%"
     height="100%"
     transform="translate(-77.920191,-23.488322)" />
  <use
     id="use5128"
     inkscape:spray-origin="#path5118"
     xlink:href="#path5118"
     x="0"
     y="0"
     width="100%"
     height="100%"
     transform="translate(-63.228518,-28.017483)" />
  <use
     id="use5130"
     inkscape:spray-origin="#path5118"
     xlink:href="#path5118"
     x="0"
     y="0"
     width="100%"
     height="100%"
     transform="translate(-70.661785,-27.78057)" />
  <use
     id="use5132"
     inkscape:spray-origin="#path5118"
     xlink:href="#path5118"
     x="0"
     y="0"
     width="100%"
     height="100%"
     transform="translate(-45.956005,-34.302258)" />
  <use
     id="use5134"
     inkscape:spray-origin="#path5118"
     xlink:href="#path5118"
     x="0"
     y="0"
     width="100%"
     height="100%"
     transform="translate(-42.764671,-29.192987)" />
  <use
     id="use5136"
     inkscape:spray-origin="#path5118"
     xlink:href="#path5118"
     x="0"
     y="0"
     width="100%"
     height="100%"
     transform="translate(-37.14811,-21.221573)" />
  <use
     id="use5138"
     inkscape:spray-origin="#path5118"
     xlink:href="#path5118"
     x="0"
     y="0"
     width="100%"
     height="100%"
     transform="translate(-43.069907,-34.664961)" />
  <use
     id="use5140"
     inkscape:spray-origin="#path5118"
     xlink:href="#path5118"
     x="0"
     y="0"
     width="100%"
     height="100%"
     transform="translate(-28.199244,-25.129812)" />
  <use
     id="use5142"
     inkscape:spray-origin="#path5118"
     xlink:href="#path5118"
     x="0"
     y="0"
     width="100%"
     height="100%"
     transform="translate(-14.228684,-30.575012)" />
  <use
     id="use5144"
     inkscape:spray-origin="#path5118"
     xlink:href="#path5118"
     x="0"
     y="0"
     width="100%"
     height="100%"
     transform="translate(-17.51716,-12.18573)" />
  <use
     id="use5146"
     inkscape:spray-origin="#path5118"
     xlink:href="#path5118"
     x="0"
     y="0"
     width="100%"
     height="100%"
     transform="translate(-2.3048399,-26.296836)" />
  <use
     id="use5148"
     inkscape:spray-origin="#path5118"
     xlink:href="#path5118"
     x="0"
     y="0"
     width="100%"
     height="100%"
     transform="translate(7.8226433,-21.968303)" />
  <use
     id="use5150"
     inkscape:spray-origin="#path5118"
     xlink:href="#path5118"
     x="0"
     y="0"
     width="100%"
     height="100%"
     transform="translate(15.867599,-16.257663)" />
  <use
     id="use5152"
     inkscape:spray-origin="#path5118"
     xlink:href="#path5118"
     x="0"
     y="0"
     width="100%"
     height="100%"
     transform="translate(33.354449,-12.126531)" />
  <use
     id="use5154"
     inkscape:spray-origin="#path5118"
     xlink:href="#path5118"
     x="0"
     y="0"
     width="100%"
     height="100%"
     transform="translate(20.957522,-14.186049)" />
  <use
     id="use5156"
     inkscape:spray-origin="#path5118"
     xlink:href="#path5118"
     x="0"
     y="0"
     width="100%"
     height="100%"
     transform="translate(19.146385,-4.7061951)" />
  <use
     id="use5158"
     inkscape:spray-origin="#path5118"
     xlink:href="#path5118"
     x="0"
     y="0"
     width="100%"
     height="100%"
     transform="translate(38.494658,-21.659597)" />
  <use
     id="use5160"
     inkscape:spray-origin="#path5118"
     xlink:href="#path5118"
     x="0"
     y="0"
     width="100%"
     height="100%"
     transform="translate(31.679318,-42.454856)" />
  <use
     id="use5162"
     inkscape:spray-origin="#path5118"
     xlink:href="#path5118"
     x="0"
     y="0"
     width="100%"
     height="100%"
     transform="translate(54.290661,-30.58641)" />
  <use
     id="use5164"
     inkscape:spray-origin="#path5118"
     xlink:href="#path5118"
     x="0"
     y="0"
     width="100%"
     height="100%"
     transform="translate(33.519177,-26.464741)" />
  <use
     id="use5166"
     inkscape:spray-origin="#path5118"
     xlink:href="#path5118"
     x="0"
     y="0"
     width="100%"
     height="100%"
     transform="translate(47.824056,-33.540963)" />
  <use
     id="use5168"
     inkscape:spray-origin="#path5118"
     xlink:href="#path5118"
     x="0"
     y="0"
     width="100%"
     height="100%"
     transform="translate(51.16773,-26.878075)" />
  <use
     id="use5170"
     inkscape:spray-origin="#path5118"
     xlink:href="#path5118"
     x="0"
     y="0"
     width="100%"
     height="100%"
     transform="translate(24.887321,4.2809163)" />
  <use
     id="use5172"
     inkscape:spray-origin="#path5118"
     xlink:href="#path5118"
     x="0"
     y="0"
     width="100%"
     height="100%"
     transform="translate(33.045748,-21.371612)" />
  <use
     id="use5174"
     inkscape:spray-origin="#path5118"
     xlink:href="#path5118"
     x="0"
     y="0"
     width="100%"
     height="100%"
     transform="translate(42.611827,-9.6036496)" />
  <use
     id="use5176"
     inkscape:spray-origin="#path5118"
     xlink:href="#path5118"
     x="0"
     y="0"
     width="100%"
     height="100%"
     transform="translate(38.635452,-8.653282)" />
  <use
     id="use5178"
     inkscape:spray-origin="#path5118"
     xlink:href="#path5118"
     x="0"
     y="0"
     width="100%"
     height="100%"
     transform="translate(20.467664,-18.67176)" />
  <path
     style="fill:#cd7f32;fill-opacity:0;stroke-width:0.42160675"
     d="m 115.56241,232.93947 c -2.17297,-1.00605 -1.73895,-0.50079 -16.450986,-19.15138 -6.917976,-8.76999 -13.398388,-16.66744 -14.40091,-17.5499 -1.002522,-0.88245 -3.12293,-2.28768 -4.712016,-3.12272 -5.205971,-2.73566 -5.783096,-2.78901 -30.245832,-2.79595 l -21.96264,-0.006 -1.835905,-0.97085 c -2.043023,-1.08038 -3.777606,-3.77859 -3.777606,-5.87621 0,-0.67845 2.181815,-10.68816 4.848478,-22.24381 2.676649,-11.59892 4.845198,-21.92302 4.841156,-23.04793 -0.01076,-2.99468 -1.073378,-7.50943 -2.455551,-10.43289 -0.795941,-1.6835 -5.745692,-8.22382 -14.386305,-19.00922 C 7.779215,99.688916 1.4917703,91.585815 1.0521939,90.725489 -0.51484691,87.658523 0.34483642,84.145662 3.2042113,81.931856 4.0158043,81.303501 13.12251,76.757493 23.441335,71.829618 33.76016,66.901744 43.110833,62.211251 44.220608,61.406302 c 2.633334,-1.910026 5.6121,-5.581765 7.09667,-8.747619 0.812343,-1.732332 2.715611,-9.223428 6.038555,-23.767224 5.369445,-23.5008843 5.334675,-23.4041499 8.994972,-25.023274 1.361971,-0.6024638 2.35862,-0.7636751 3.546708,-0.5736918 0.90884,0.1453294 10.132319,4.3625228 20.496614,9.3715418 10.364303,5.009018 19.975013,9.470798 21.357143,9.915065 2.89458,0.930426 9.5962,1.114743 12.54258,0.344962 0.9948,-0.259906 10.72571,-4.761615 21.62425,-10.003799 17.66508,-8.4968858 20.04428,-9.5316859 21.92355,-9.5353182 1.18518,-0.00229 2.70867,0.3126485 3.48005,0.7194057 2.85465,1.5052835 3.15653,2.4166288 8.34602,25.1955715 5.57854,24.486604 5.71498,24.866897 10.72989,29.908484 l 3.16205,3.178872 19.18311,9.186845 c 10.5507,5.052763 19.87158,9.633461 20.71305,10.179324 1.70481,1.105912 3.32364,4.003978 3.30927,5.924304 -0.005,0.680414 -0.35897,1.996005 -0.78639,2.923539 -0.42741,0.927535 -6.78375,9.180487 -14.12519,18.33989 -7.34144,9.15941 -13.81653,17.63552 -14.3891,18.83581 -1.39002,2.91394 -2.29672,6.92136 -2.30433,10.18469 -0.004,1.92396 1.35555,8.57122 4.86705,23.78787 5.36118,23.23196 5.36036,23.22489 2.99561,25.91819 -2.369,2.69814 -1.83793,2.64355 -25.7161,2.64355 -12.80148,0 -22.59807,0.17417 -23.93972,0.42562 -3.34086,0.62615 -8.68567,3.344 -11.25482,5.72312 -1.23097,1.13993 -8.15908,9.56665 -15.39581,18.72605 -11.09901,14.04784 -13.45088,16.80189 -15.03168,17.60209 -2.26459,1.14633 -3.88346,1.18581 -6.1222,0.1493 z m 11.38338,-63.49969 c 24.67488,-3.69542 44.34449,-22.93697 48.45009,-47.39568 0.87044,-5.18557 0.8649,-14.32409 -0.0118,-19.45612 C 172.07074,83.192397 158.65591,66.439583 140.45274,58.964752 113.90934,48.065143 83.406771,58.298989 68.771447,83.014369 57.609872,101.86347 58.148888,125.75478 70.145932,143.93654 c 8.077176,12.24114 20.273804,20.91779 34.336998,24.42728 7.12926,1.77911 15.18977,2.16521 22.46287,1.07596 z"
     id="path5180"
     inkscape:connector-curvature="0" />
  <path
     style="fill:#cd7f32;fill-opacity:0;stroke-width:0.42160675"
     d="m 115.56241,232.93947 c -2.17297,-1.00605 -1.73895,-0.50079 -16.450986,-19.15138 -6.917976,-8.76999 -13.398388,-16.66744 -14.40091,-17.5499 -1.002522,-0.88245 -3.12293,-2.28768 -4.712016,-3.12272 -5.205971,-2.73566 -5.783096,-2.78901 -30.245832,-2.79595 l -21.96264,-0.006 -1.835905,-0.97085 c -2.043023,-1.08038 -3.777606,-3.77859 -3.777606,-5.87621 0,-0.67845 2.181815,-10.68816 4.848478,-22.24381 2.676649,-11.59892 4.845198,-21.92302 4.841156,-23.04793 -0.01076,-2.99468 -1.073378,-7.50943 -2.455551,-10.43289 -0.795941,-1.6835 -5.745692,-8.22382 -14.386305,-19.00922 C 7.779215,99.688916 1.4917703,91.585815 1.0521939,90.725489 -0.51484691,87.658523 0.34483642,84.145662 3.2042113,81.931856 4.0158043,81.303501 13.12251,76.757493 23.441335,71.829618 33.76016,66.901744 43.110833,62.211251 44.220608,61.406302 c 2.633334,-1.910026 5.6121,-5.581765 7.09667,-8.747619 0.812343,-1.732332 2.715611,-9.223428 6.038555,-23.767224 5.369445,-23.5008843 5.334675,-23.4041499 8.994972,-25.023274 1.361971,-0.6024638 2.35862,-0.7636751 3.546708,-0.5736918 0.90884,0.1453294 10.132319,4.3625228 20.496614,9.3715418 10.364303,5.009018 19.975013,9.470798 21.357143,9.915065 2.89458,0.930426 9.5962,1.114743 12.54258,0.344962 0.9948,-0.259906 10.72571,-4.761615 21.62425,-10.003799 17.66508,-8.4968858 20.04428,-9.5316859 21.92355,-9.5353182 1.18518,-0.00229 2.70867,0.3126485 3.48005,0.7194057 2.85465,1.5052835 3.15653,2.4166288 8.34602,25.1955715 5.57854,24.486604 5.71498,24.866897 10.72989,29.908484 l 3.16205,3.178872 19.18311,9.186845 c 10.5507,5.052763 19.87158,9.633461 20.71305,10.179324 1.70481,1.105912 3.32364,4.003978 3.30927,5.924304 -0.005,0.680414 -0.35897,1.996005 -0.78639,2.923539 -0.42741,0.927535 -6.78375,9.180487 -14.12519,18.33989 -7.34144,9.15941 -13.81653,17.63552 -14.3891,18.83581 -1.39002,2.91394 -2.29672,6.92136 -2.30433,10.18469 -0.004,1.92396 1.35555,8.57122 4.86705,23.78787 5.36118,23.23196 5.36036,23.22489 2.99561,25.91819 -2.369,2.69814 -1.83793,2.64355 -25.7161,2.64355 -12.80148,0 -22.59807,0.17417 -23.93972,0.42562 -3.34086,0.62615 -8.68567,3.344 -11.25482,5.72312 -1.23097,1.13993 -8.15908,9.56665 -15.39581,18.72605 -11.09901,14.04784 -13.45088,16.80189 -15.03168,17.60209 -2.26459,1.14633 -3.88346,1.18581 -6.1222,0.1493 z m 11.38338,-63.49969 c 24.67488,-3.69542 44.34449,-22.93697 48.45009,-47.39568 0.87044,-5.18557 0.8649,-14.32409 -0.0118,-19.45612 C 172.07074,83.192397 158.65591,66.439583 140.45274,58.964752 113.90934,48.065143 83.406771,58.298989 68.771447,83.014369 57.609872,101.86347 58.148888,125.75478 70.145932,143.93654 c 8.077176,12.24114 20.273804,20.91779 34.336998,24.42728 7.12926,1.77911 15.18977,2.16521 22.46287,1.07596 z"
     id="path5182"
     inkscape:connector-curvature="0" />
  <path
     style="fill:#cd7f32;fill-opacity:0;stroke-width:0.42160675"
     d="m 115.56241,232.93947 c -2.17297,-1.00605 -1.73895,-0.50079 -16.450986,-19.15138 -6.917976,-8.76999 -13.398388,-16.66744 -14.40091,-17.5499 -1.002522,-0.88245 -3.12293,-2.28768 -4.712016,-3.12272 -5.205971,-2.73566 -5.783096,-2.78901 -30.245832,-2.79595 l -21.96264,-0.006 -1.835905,-0.97085 c -2.043023,-1.08038 -3.777606,-3.77859 -3.777606,-5.87621 0,-0.67845 2.181815,-10.68816 4.848478,-22.24381 2.676649,-11.59892 4.845198,-21.92302 4.841156,-23.04793 -0.01076,-2.99468 -1.073378,-7.50943 -2.455551,-10.43289 -0.795941,-1.6835 -5.745692,-8.22382 -14.386305,-19.00922 C 7.779215,99.688916 1.4917703,91.585815 1.0521939,90.725489 -0.51484691,87.658523 0.34483642,84.145662 3.2042113,81.931856 4.0158043,81.303501 13.12251,76.757493 23.441335,71.829618 33.76016,66.901744 43.110833,62.211251 44.220608,61.406302 c 2.633334,-1.910026 5.6121,-5.581765 7.09667,-8.747619 0.812343,-1.732332 2.715611,-9.223428 6.038555,-23.767224 5.369445,-23.5008843 5.334675,-23.4041499 8.994972,-25.023274 1.361971,-0.6024638 2.35862,-0.7636751 3.546708,-0.5736918 0.90884,0.1453294 10.132319,4.3625228 20.496614,9.3715418 10.364303,5.009018 19.975013,9.470798 21.357143,9.915065 2.89458,0.930426 9.5962,1.114743 12.54258,0.344962 0.9948,-0.259906 10.72571,-4.761615 21.62425,-10.003799 17.66508,-8.4968858 20.04428,-9.5316859 21.92355,-9.5353182 1.18518,-0.00229 2.70867,0.3126485 3.48005,0.7194057 2.85465,1.5052835 3.15653,2.4166288 8.34602,25.1955715 5.57854,24.486604 5.71498,24.866897 10.72989,29.908484 l 3.16205,3.178872 19.18311,9.186845 c 10.5507,5.052763 19.87158,9.633461 20.71305,10.179324 1.70481,1.105912 3.32364,4.003978 3.30927,5.924304 -0.005,0.680414 -0.35897,1.996005 -0.78639,2.923539 -0.42741,0.927535 -6.78375,9.180487 -14.12519,18.33989 -7.34144,9.15941 -13.81653,17.63552 -14.3891,18.83581 -1.39002,2.91394 -2.29672,6.92136 -2.30433,10.18469 -0.004,1.92396 1.35555,8.57122 4.86705,23.78787 5.36118,23.23196 5.36036,23.22489 2.99561,25.91819 -2.369,2.69814 -1.83793,2.64355 -25.7161,2.64355 -12.80148,0 -22.59807,0.17417 -23.93972,0.42562 -3.34086,0.62615 -8.68567,3.344 -11.25482,5.72312 -1.23097,1.13993 -8.15908,9.56665 -15.39581,18.72605 -11.09901,14.04784 -13.45088,16.80189 -15.03168,17.60209 -2.26459,1.14633 -3.88346,1.18581 -6.1222,0.1493 z m 11.38338,-63.49969 c 24.67488,-3.69542 44.34449,-22.93697 48.45009,-47.39568 0.87044,-5.18557 0.8649,-14.32409 -0.0118,-19.45612 C 172.07074,83.192397 158.65591,66.439583 140.45274,58.964752 113.90934,48.065143 83.406771,58.298989 68.771447,83.014369 57.609872,101.86347 58.148888,125.75478 70.145932,143.93654 c 8.077176,12.24114 20.273804,20.91779 34.336998,24.42728 7.12926,1.77911 15.18977,2.16521 22.46287,1.07596 z"
     id="path5184"
     inkscape:connector-curvature="0" />
  <path
     style="fill:#cd7f32;fill-opacity:0;stroke-width:0.42160675"
     d="m 115.56241,232.93947 c -2.17297,-1.00605 -1.73895,-0.50079 -16.450986,-19.15138 -6.917976,-8.76999 -13.398388,-16.66744 -14.40091,-17.5499 -1.002522,-0.88245 -3.12293,-2.28768 -4.712016,-3.12272 -5.205971,-2.73566 -5.783096,-2.78901 -30.245832,-2.79595 l -21.96264,-0.006 -1.835905,-0.97085 c -2.043023,-1.08038 -3.777606,-3.77859 -3.777606,-5.87621 0,-0.67845 2.181815,-10.68816 4.848478,-22.24381 2.676649,-11.59892 4.845198,-21.92302 4.841156,-23.04793 -0.01076,-2.99468 -1.073378,-7.50943 -2.455551,-10.43289 -0.795941,-1.6835 -5.745692,-8.22382 -14.386305,-19.00922 C 7.779215,99.688916 1.4917703,91.585815 1.0521939,90.725489 -0.51484691,87.658523 0.34483642,84.145662 3.2042113,81.931856 4.0158043,81.303501 13.12251,76.757493 23.441335,71.829618 33.76016,66.901744 43.110833,62.211251 44.220608,61.406302 c 2.633334,-1.910026 5.6121,-5.581765 7.09667,-8.747619 0.812343,-1.732332 2.715611,-9.223428 6.038555,-23.767224 5.369445,-23.5008843 5.334675,-23.4041499 8.994972,-25.023274 1.361971,-0.6024638 2.35862,-0.7636751 3.546708,-0.5736918 0.90884,0.1453294 10.132319,4.3625228 20.496614,9.3715418 10.364303,5.009018 19.975013,9.470798 21.357143,9.915065 2.89458,0.930426 9.5962,1.114743 12.54258,0.344962 0.9948,-0.259906 10.72571,-4.761615 21.62425,-10.003799 17.66508,-8.4968858 20.04428,-9.5316859 21.92355,-9.5353182 1.18518,-0.00229 2.70867,0.3126485 3.48005,0.7194057 2.85465,1.5052835 3.15653,2.4166288 8.34602,25.1955715 5.57854,24.486604 5.71498,24.866897 10.72989,29.908484 l 3.16205,3.178872 19.18311,9.186845 c 10.5507,5.052763 19.87158,9.633461 20.71305,10.179324 1.70481,1.105912 3.32364,4.003978 3.30927,5.924304 -0.005,0.680414 -0.35897,1.996005 -0.78639,2.923539 -0.42741,0.927535 -6.78375,9.180487 -14.12519,18.33989 -7.34144,9.15941 -13.81653,17.63552 -14.3891,18.83581 -1.39002,2.91394 -2.29672,6.92136 -2.30433,10.18469 -0.004,1.92396 1.35555,8.57122 4.86705,23.78787 5.36118,23.23196 5.36036,23.22489 2.99561,25.91819 -2.369,2.69814 -1.83793,2.64355 -25.7161,2.64355 -12.80148,0 -22.59807,0.17417 -23.93972,0.42562 -3.34086,0.62615 -8.68567,3.344 -11.25482,5.72312 -1.23097,1.13993 -8.15908,9.56665 -15.39581,18.72605 -11.09901,14.04784 -13.45088,16.80189 -15.03168,17.60209 -2.26459,1.14633 -3.88346,1.18581 -6.1222,0.1493 z m 11.38338,-63.49969 c 24.67488,-3.69542 44.34449,-22.93697 48.45009,-47.39568 0.87044,-5.18557 0.8649,-14.32409 -0.0118,-19.45612 C 172.07074,83.192397 158.65591,66.439583 140.45274,58.964752 113.90934,48.065143 83.406771,58.298989 68.771447,83.014369 57.609872,101.86347 58.148888,125.75478 70.145932,143.93654 c 8.077176,12.24114 20.273804,20.91779 34.336998,24.42728 7.12926,1.77911 15.18977,2.16521 22.46287,1.07596 z"
     id="path5186"
     inkscape:connector-curvature="0" />
</svg>
